# xmcd
#
# Track frame offsets:
#	150
#	15880
#	31592
#	44997
#
# Disc length: 764 seconds
# Revision: 0
# Processed by: cddbd v1.5.2PL0 Copyright (c) Steve Scherf et al.
# Submitted via: dBpowerAMP V12.0
#
DISCID=2402fa04
DTITLE=Brooks and Dunn - Tailgate Party- Mobil 1
DYEAR=1998
DGENRE=Country
TTITLE0=Sunday Money
TTITLE1=Your Love Don't Take A Backseat To Nothing
TTITLE2=Hard Workin' Man
TTITLE3=You Left Me There
EXTD=
EXTT0=
EXTT1=
EXTT2=
EXTT3=
PLAYORDER=
